<svg xmlns="http://www.w3.org/2000/svg" width="1600" height="1600" viewBox="0 0 1600 1600" fill="none">
  <rect width="1600" height="1600" fill="#FCFCFB"/>
  <g stroke="#222222" stroke-width="4" stroke-linecap="round" stroke-linejoin="round" opacity="0.42">
    <path d="M80 120h160M140 60v120M240 60l70 120M310 60l-70 120"/>
    <path d="M420 120c40-50 90-50 130 0M420 220c40-50 90-50 130 0"/>
    <path d="M660 70l80 140 80-140"/>
    <path d="M900 80h120M960 80v140M900 220h120"/>
    <path d="M1120 110c50-40 100-40 150 0"/>
    <path d="M1290 70l100 150"/>
    <path d="M1320 110l70-40"/>
    <path d="M120 360c40-60 120-60 160 0"/>
    <path d="M360 300l140 140M500 300L360 440"/>
    <path d="M620 300h140M690 230v210"/>
    <circle cx="930" cy="360" r="78"/>
    <path d="M896 390c14 18 52 18 66 0"/>
    <circle cx="905" cy="344" r="5" fill="#222222"/>
    <circle cx="955" cy="344" r="5" fill="#222222"/>
    <path d="M1080 430l50-110 50 110M1100 390h60"/>
    <path d="M1240 300v140h120"/>
    <path d="M1240 300l120 140"/>
    <path d="M80 560h140M80 620h140M150 560v60"/>
    <path d="M320 540c30-30 70-30 100 0 30 30 30 70 0 100-30 30-70 30-100 0"/>
    <path d="M540 520l60 140 60-140"/>
    <path d="M760 560h150M775 620l120-100"/>
    <path d="M980 540h90v120h-90z"/>
    <path d="M1090 540v120M980 600h110"/>
    <path d="M1240 540c55 0 100 45 100 100"/>
    <path d="M1340 540c-55 0-100 45-100 100"/>
    <path d="M80 820c50-40 110-40 160 0"/>
    <path d="M150 760v120"/>
    <path d="M330 740l120 160"/>
    <path d="M520 760q70-70 140 0"/>
    <path d="M540 850q60-55 120 0"/>
    <path d="M780 740h40l40 120 40-120h40"/>
    <path d="M1040 760l50 110 50-110"/>
    <path d="M1060 830h60"/>
    <path d="M1220 780c35-50 95-50 130 0"/>
    <path d="M1220 860c35-50 95-50 130 0"/>
    <path d="M120 1020h120M180 960v120"/>
    <path d="M330 960l110 120M440 960l-110 120"/>
    <path d="M560 1010c30-30 80-30 110 0"/>
    <path d="M560 1070c30-30 80-30 110 0"/>
    <path d="M780 960l60 140 60-140"/>
    <circle cx="1000" cy="1030" r="70"/>
    <path d="M950 1080c28-18 72-18 100 0"/>
    <path d="M1140 980h120v120h-120z"/>
    <path d="M1140 980l120 120"/>
    <path d="M1260 980l-120 120"/>
    <path d="M80 1260c40-60 120-60 160 0"/>
    <path d="M300 1240h150M320 1320h110"/>
    <path d="M560 1220l80 140 80-140"/>
    <path d="M800 1210c50-35 100-35 150 0"/>
    <path d="M800 1310c50-35 100-35 150 0"/>
    <path d="M1080 1220h40l40 120 40-120h40"/>
    <path d="M1320 1210v140M1250 1280h140"/>
    <path d="M260 170l35-20M280 215l35 20M1110 190l38 18M135 1180l30 24M870 490l34-16M700 1160l34 22M1450 240l-40 26M1460 1240l-50 18"/>
  </g>
  <g fill="#222222" opacity="0.32" font-family="Arial, sans-serif" font-size="52" font-weight="600">
    <text x="210" y="520">x² + 2 = 4</text>
    <text x="720" y="520">2 + 2 = 4</text>
    <text x="1220" y="430">y = 90°</text>
    <text x="220" y="930">Math?</text>
    <text x="1000" y="700">%</text>
    <text x="1280" y="1040">5 - 3 = 2</text>
    <text x="280" y="1390">x + y = ?</text>
    <text x="920" y="1450">A B C</text>
  </g>
</svg>
