<svg id="eD7xd9LMIiU1" xmlns="http://www.w3.org/2000/svg" xmlns:xlink="http://www.w3.org/1999/xlink" viewBox="0 0 1600 1600" shape-rendering="geometricPrecision" text-rendering="geometricPrecision" project-id="a5e92d86060140a3a974bf80444c53c9" export-id="520912e8833d4ae3bb3163ad62b0f61f" cached="false"><g transform="matrix(0.143402 0 0 -0.143412 -119.275545 1413.80336)"><path d="M8438,8458l-3-103-97-3-98-3v-64-65h100h100v-100-100h65h65v100v100h100h100v65v65h-100-100v105v105h-65-64l-3-102Z" fill="#3d177e"/><path d="M7315,7869c-60-199-110-366-110-372c0-13,107-50,116-40c4,5,37,107,74,228s85,279,107,350c22,72,42,137,45,146c3,12-10,19-56,32-33,9-62,17-63,17-2,0-52-163-113-361Z" fill="#3d177e"/><path d="M9336,7588l-36-43l29-25c16-14,108-92,206-174l177-149l38,44c22,24,39,46,39,49c0,7-393,333-406,337-6,2-27-15-47-39Z" fill="#3d177e"/><path d="M9210,7434c-19-24-35-48-35-53c0-4,89-83,199-175l199-167l28,33c57,65,66,52-138,225-103,87-194,163-203,169-12,9-21,3-50-32Z" transform="translate(0 0.000001)" fill="#3d177e"/><path d="M8420,7130v-71l148,3l147,3v68v67h-147-148v-70Z" fill="#3d177e"/><path d="M8015,7025c-71-13-184-33-250-45s-121-23-124-25c-4-4,46-78,183-272l80-112l44,77c74,129,222,394,222,398c0,6-13,4-155-21Z" fill="#3d177e"/><path d="M7170,6875c-195-35-381-70-413-77l-59-13l69-39c153-86,310-223,406-351c112-149,201-375,229-582c7-50,16-89,20-87c4,3,24,35,44,72c63,113,325,574,362,634c19,32,32,64,29,72s-70,104-148,213-144,203-146,210c-3,7-13,13-22,12-9,0-176-29-371-64Z" fill="#3d177e"/><path d="M6599,6695c-8-7-88-67-179-132-1087-785-1947-1432-2330-1751-778-651-1144-1183-1041-1519c26-87,48-113,359-413c501-485,470-465,717-464c141,0,178,4,311,32c476,101,928,281,2169,867c818,386,1332,606,1665,713c196,63,213,67,208,50-7-22-201-191-414-362-186-149-574-436-909-671-77-55-207-147-290-205-82-58-220-155-305-215-784-548-1184-888-1349-1144-62-97-86-199-62-264c5-13,67-80,138-150c219-215,234-225,330-226c245-4,788,224,1813,760c212,111,855,433,965,484c106,49,317,137,320,133c6-6-157-141-315-260-205-155-418-305-810-573-789-540-1110-783-1266-962-99-114-123-180-92-248c15-34,184-175,209-175c11,0,22,8,26,18c30,91,77,149,230,287c172,156,522,412,1081,790c946,640,1294,927,1348,1111c14,51,14,68-5,247-23,210-30,228-92,259-48,25-135,23-254-6-288-71-468-154-1875-869-245-124-521-259-615-300-180-79-395-161-402-154-2,3,38,40,89,84c218,186,542,426,1143,843c697,485,927,650,1182,847c295,230,495,423,599,579c105,158,107,176,69,601-38,421-44,446-113,503-64,52-119,65-282,64-116,0-170-6-271-27-290-61-558-152-1004-340-256-107-310-132-1020-457-1040-477-1515-671-1924-786-68-19-130-34-138-32-9,2,22,40,84,103c187,191,492,446,957,799c268,203,489,365,1156,848c113,82,288,210,390,285c102,74,256,188,343,252l158,116-5,95c-12,235-121,487-288,666-102,108-261,227-360,269-29,12-37,12-49,0Zm115-190c44-30,108-79,141-110l60-55-35-30c-19-17-122-95-228-173-175-129-323-237-747-550-1142-843-1489-1116-1860-1463-250-234-407-410-522-586-73-111-155-279-174-356l-13-53-68,68c-38,37-78,88-90,112-93,192,129,590,569,1021c421,413,793,704,2492,1947c213,155,388,282,390,282c2,1,40-24,85-54Zm335-355c22-41,53-115,70-165c35-105,60-253,45-263-6-4-92-68-193-142-227-168-320-236-652-477-1352-984-1711-1263-2081-1615-234-221-439-498-493-664-11-32-20-61-22-63-1-2-63,54-138,125-153,146-149,138-115,262c89,321,421,712,1040,1223c259,214,761,597,1315,1004c98,72,230,169,294,216s262,193,441,324c179,132,350,259,380,282s58,39,61,35c4-4,26-41,48-82ZM8689,4794c28-8,66-28,84-44c30-27,32-32,32-97c0-58-6-80-37-146-42-87-103-177-175-255-46-50-53-53-143-77-350-89-889-312-1805-745-1195-566-1707-774-2140-870-355-80-559-60-623,60-31,59-25,124,22,226c36,77,140,235,178,271c16,15,70,34,163,58c459,117,879,287,2170,877c1002,459,1327,591,1694,689c247,67,468,87,580,53Zm304-2146c46-24,3-126-102-239-59-64-66-69-193-119-280-111-760-344-1443-701-359-188-738-374-955-469-427-186-727-249-756-158-11,36,75,166,173,259c40,39,64,52,148,79c55,17,197,73,315,123c208,89,376,171,1500,739c545,275,748,367,960,436c208,67,295,80,353,50Z" fill="#3d177e"/><path d="M8564,6283c2-16,8-58,11-95l7-68-46,20c-25,11-65,29-89,39l-44,19-22-76c-16-55-19-77-10-82c6-4,47-15,90-25l79-17-29-36c-16-21-43-50-60-66-17-17-31-35-31-41c0-11,119-110,125-103c1,2,24,38,50,81c25,42,48,77,50,77s25-35,51-77c26-43,49-80,50-82c4-5,124,91,124,100c0,4-27,38-59,76-68,77-70,73,47,93c39,7,72,16,72,19s-10,39-21,79c-14,45-27,72-36,72-8,0-30-8-51-19-20-10-54-26-76-35l-39-16l8,81c3,45,9,88,12,95c4,11-12,14-82,14h-87l6-27Z" fill="#3d177e"/></g></svg>
